<?xml version="1.0"?>
<svg width="150" height="150" xmlns="http://www.w3.org/2000/svg" xmlns:svg="http://www.w3.org/2000/svg">
 <g>
  <title>Layer 1</title>
  <polygon points="50,0 75,25 50,50" fill="#00AEEF"/>
  <polygon points="100,0 75,25 100,50" fill="#0F9745"/>
  <polygon points="50,50 75,25 100,50" fill="#FFF200"/>
  <polygon points="50,50 75,75 100,50" fill="#F7941D"/>
  <polygon points="0,50 25,75 50,50" fill="#F6831D"/>
  <polygon points="0,100 25,75 50,100" fill="#39B54A"/>
  <polygon points="50,50 25,75 50,100" fill="#046738"/>
  <polygon points="50,50 75,75 50,100" fill="#ED1C24"/>
  <polygon points="50,150 75,125 50,100" fill="#0075BF"/>
  <polygon points="100,150 75,125 100,100" fill="#F79118"/>
  <polygon points="50,100 75,125 100,100" fill="#603813"/>
  <polygon points="50,100 75,75 100,100" fill="#C4151B"/>
  <polygon points="150,50 125,75 100,50" fill="#39B54A"/>
  <polygon points="150,100 125,75 100,100" fill="#F7941D"/>
  <polygon points="100,50 125,75 100,100" fill="#D91921"/>
  <polygon points="100,50 75,75 100,100" fill="#00AEEF"/>
 </g>
</svg>
