<svg class="icon icon-linkedin" version="1.1" xmlns="http://www.w3.org/2000/svg" x="0" y="0" width="68" height="68" viewBox="0 0 68 68" preserveAspectRatio="xMinYMin"><path class="icon-foreground icon-linkedin--foreground" d="m13.324543,0c-7.327454,0 -13.324543,5.997117 -13.324543,13.324858l0,41.34947c0,7.327644 5.996996,13.322697 13.324543,13.322697l41.348549,0c7.327545,0 13.322422,-5.995003 13.322422,-13.322697l0,-41.34947c0,-7.327596 -5.994877,-13.324858 -13.322422,-13.324858l-41.348549,0zm3.351332,11.220858c3.513378,0 5.677532,2.306561 5.744274,5.338423c0,2.964966 -2.230989,5.336308 -5.812212,5.336308l-0.065908,0c-3.446454,0 -5.674114,-2.371246 -5.674114,-5.336308c0,-3.031814 2.295047,-5.338423 5.807961,-5.338423l0,0zm30.276716,14.170664c6.756931,0 11.822151,4.416433 11.822151,13.907131l0,17.717518l-10.268639,0l0,-16.529636c0,-4.153717 -1.486126,-6.987591 -5.202312,-6.987591c-2.836914,0 -4.527878,1.910061 -5.27034,3.755238c-0.271214,0.660137 -0.33786,1.582077 -0.33786,2.505562l0,17.256428l-10.268641,0s0.134773,-28.000698 0,-30.900023l10.270765,0l0,4.375767c1.364571,-2.105446 3.805481,-5.100441 9.254875,-5.100441l0,0.000048zm-35.479023,0.726889l10.268641,0l0,30.897902l-10.268641,0l0,-30.897902z"/></svg>
