<?xml version="1.0"?>
<svg width="150" height="150" xmlns="http://www.w3.org/2000/svg">
 <g>
  <title>Layer 1</title>
  <polygon points="51,3 74,26 51,49" fill="#00AEEF"/>
  <polygon points="99,3 76,26 99,49" fill="#0F9745"/>
  <polygon points="52,50 75,27 98,50" fill="#FFF200"/>
  <polygon points="52,51 75,74 98,51" fill="#F7941D"/>
  <polygon points="3,51 26,74 49,51" fill="#F6831D"/>
  <polygon points="3,99 26,76 49,99" fill="#39B54A"/>
  <polygon points="50,52 27,75 50,98" fill="#046738"/>
  <polygon points="51,52 74,75 51,98" fill="#ED1C24"/>
  <polygon points="51,147 74,124 51,101" fill="#0075BF"/>
  <polygon points="99,147 76,124 99,101" fill="#F79118"/>
  <polygon points="52,100 75,123 98,100" fill="#603813"/>
  <polygon points="52,99 75,76 98,99" fill="#C4151B"/>
  <polygon points="147,51 124,74 101,51" fill="#39B54A"/>
  <polygon points="147,99 124,76 101,99" fill="#F7941D"/>
  <polygon points="100,52 123,75 100,98" fill="#D91921"/>
  <polygon points="99,52 76,75 99,98" fill="#00AEEF"/>
 </g>
</svg>
